<?xml version="1.0" encoding="utf-8"?>
<!-- Generator: Adobe Illustrator 25.2.3, SVG Export Plug-In . SVG Version: 6.00 Build 0)  -->
<svg version="1.1" id="Flat" xmlns="http://www.w3.org/2000/svg" xmlns:xlink="http://www.w3.org/1999/xlink" x="0px" y="0px"
	 viewBox="0 0 512 512" style="enable-background:new 0 0 512 512;" xml:space="preserve">
<style type="text/css">
	.st0{opacity:5.000000e-02;enable-background:new    ;}
	.st1{fill:#F2FAFF;}
	.st2{fill:#D2F3E2;}
	.st3{fill:#FDBF67;}
	.st4{fill:#0DCEA9;}
	.st5{fill:#09B291;}
	.st6{fill:#FFFEFA;}
	.st7{fill:#FFD4CF;}
	.st8{fill:#FBB8B0;}
	.st9{fill:#FDAD67;}
	.st10{fill:#FB8656;}
</style>
<path class="st0" d="M488,34H44c-5.5,0-10,4.5-10,10v38v272v46c0,5.5,4.5,10,10,10h174v19.2c0,17.2-11,32.5-27.4,37.9l-7,2.3
	c-8.2,2.7-13.7,10.4-13.7,19v9.6h192v-9.6c0-8.6-5.5-16.3-13.7-19l-7-2.3c-16.3-5.4-27.4-20.7-27.4-37.9V410h174c5.5,0,10-4.5,10-10
	v-46V82V44C498,38.5,493.5,34,488,34z"/>
<g id="Grupo_59441" transform="translate(12557.918 10152.439)">
	<path id="Trazado_108738" class="st0" d="M-12074.8-10123.4h-444c-5.5,0-10,4.5-10,10v356c0,5.5,4.5,10,10,10h174v19.2
		c0,17.2-11,32.5-27.4,37.9l-7,2.3c-8.2,2.7-13.7,10.4-13.7,19v9.6h192v-9.6c0-8.6-5.5-16.3-13.7-19l-7-2.3
		c-16.3-5.4-27.4-20.7-27.4-37.9v-19.2h174c5.5,0,10-4.5,10-10v-356c0.1-5.4-4.1-9.9-9.5-10
		C-12074.6-10123.4-12074.7-10123.4-12074.8-10123.4z"/>
	<g id="Grupo_59431" transform="translate(-12581.918 -10072.439)">
		<g id="Grupo_59428">
			<path id="Trazado_108739" class="st1" d="M43.1-13h464v272h-464V-13z"/>
			<path id="Trazado_108740" class="st2" d="M277.1,19h188c5.5,0,10,4.5,10,10v76c0,5.5-4.5,10-10,10h-188c-5.5,0-10-4.5-10-10V29
				C267.1,23.5,271.6,19,277.1,19z"/>
			<path id="Trazado_108741" class="st3" d="M301,134l64-80l12.5,10l-64,80L301,134z"/>
			<path id="Trazado_108742" class="st4" d="M371.1,403h-192v-9.6c0-8.6,5.5-16.3,13.7-19l7-2.3c16.3-5.4,27.4-20.7,27.4-37.9V315
				h96v19.2c0,17.2,11,32.5,27.4,37.9l7,2.3c8.2,2.7,13.7,10.4,13.7,19v9.6H371.1z"/>
			<path id="Trazado_108743" class="st5" d="M227.1,315h96v24h-96V315z"/>
			<g id="Grupo_59427">
				<path id="Trazado_108744" class="st4" d="M43.1,305c0,5.5,4.5,10,10,10h444c5.5,0,10-4.5,10-10v-46h-464V305z"/>
				<path id="Trazado_108745" class="st4" d="M497.1-61h-444c-5.5,0-10,4.5-10,10v38h464v-38C507.1-56.5,502.6-61,497.1-61z"/>
			</g>
		</g>
		<g id="Grupo_59429">
			<path id="Trazado_108746" class="st3" d="M163.1,107c-64,0-88,86.6-88,144v8h176v-8C251.1,193.6,227.1,107,163.1,107z"/>
			<path id="Trazado_108747" class="st6" d="M185,110.7l2.1,4.3l-24,40l32,24l14.9-52.1C202.9,119.7,194.4,114.2,185,110.7z"/>
			<path id="Trazado_108748" class="st6" d="M116.2,126.9l14.9,52.1l32-24l-24-40l2.1-4.3C131.8,114.2,123.2,119.7,116.2,126.9z"/>
			<path id="Trazado_108749" class="st7" d="M179.1,75h-32l-8,40l24,40l24-40L179.1,75z"/>
			<path id="Trazado_108750" class="st8" d="M179.1,75h-32L143,95.3l0.5,0.3c12,7.2,27.1,7.2,39.1,0l0.5-0.3L179.1,75z"/>
			<path id="Trazado_108751" class="st9" d="M199.3,259h51.8v-8c0-23.5-4-51.8-13.1-77.1L199.3,259z"/>
			<path id="Trazado_108752" class="st3" d="M259.1,171h32l-24,88h-48L259.1,171z"/>
			<path id="Trazado_108753" class="st7" d="M259.1,171h36c11,0,20-9,20-20s-9-20-20-20h-6.5c-8.2,0-15.5,5-18.6,12.6L259.1,171z"/>
		</g>
		<path id="Trazado_108754" class="st7" d="M193.4,68.1l-20,12c-6.3,3.8-14.3,3.8-20.6,0l-20-12c-6-3.6-9.7-10.1-9.7-17.1v-68.7h80
			V51C203.1,58,199.4,64.5,193.4,68.1z"/>
		<path id="Trazado_108755" class="st10" d="M197.1-53h-52c-16.5,0-30,13.4-30,29.9c0,0,0,0.1,0,0.1v8c0,5.5,4.5,10,10,10h30
			c0,0,13.4,16,30,16h42v-34C227.1-39.5,213.7-53,197.1-53C197.2-53,197.1-53,197.1-53z"/>
		<path id="Trazado_108756" class="st1" d="M251.1,275h48v16h-48V275z"/>
		<path id="Trazado_108757" class="st1" d="M67.1-45h16v16h-16V-45z"/>
		<path id="Trazado_108758" class="st1" d="M435.1-45h16v16h-16V-45z"/>
		<path id="Trazado_108759" class="st1" d="M467.1-45h16v16h-16V-45z"/>
		<g id="Grupo_59430">
			<path id="Trazado_108760" class="st2" d="M451.1,179h32v16h-32V179z"/>
			<path id="Trazado_108761" class="st2" d="M355.1,179h80v16h-80V179z"/>
			<path id="Trazado_108762" class="st2" d="M411.1,147h72v16h-72V147z"/>
			<path id="Trazado_108763" class="st2" d="M355.1,147h40v16h-40V147z"/>
			<path id="Trazado_108764" class="st2" d="M315.1,211h88v16h-88V211z"/>
			<path id="Trazado_108765" class="st2" d="M419.1,211h64v16h-64V211z"/>
		</g>
	</g>
</g>
</svg>
