<?xml version="1.0" encoding="utf-8"?>
<!-- Generator: Adobe Illustrator 25.2.3, SVG Export Plug-In . SVG Version: 6.00 Build 0)  -->
<svg version="1.1" id="Flat" xmlns="http://www.w3.org/2000/svg" xmlns:xlink="http://www.w3.org/1999/xlink" x="0px" y="0px"
	 viewBox="0 0 512 512" style="enable-background:new 0 0 512 512;" xml:space="preserve">
<style type="text/css">
	.st0{opacity:5.000000e-02;enable-background:new    ;}
	.st1{fill:#FFFFFF;}
	.st2{fill:#0DCEA9;}
	.st3{fill:#FB8656;}
	.st4{fill:#FDBF67;}
	.st5{fill:#FDAD67;}
	.st6{fill:#FFD4CF;}
	.st7{fill:#FBB8B0;}
	.st8{fill:#D16054;}
	.st9{fill:#F2FAFF;}
	.st10{fill:#D2F3E2;}
</style>
<g id="Grupo_59444" transform="translate(12557.918 10152)">
	<path id="Trazado_108809" class="st0" d="M-12074.4-10122.6h-444c-5.5,0-10,4.5-10,10v444c0,5.5,4.5,10,10,10h444
		c5.5,0,10-4.5,10-10v-444C-12064.4-10118.1-12068.9-10122.6-12074.4-10122.6z"/>
	<path id="Trazado_108810" class="st1" d="M-12528.4-10132.6h444c5.5,0,10,4.5,10,10v444c0,5.5-4.5,10-10,10h-444
		c-5.5,0-10-4.5-10-10v-444C-12538.4-10128.1-12533.9-10132.6-12528.4-10132.6z"/>
	<path id="Trazado_108811" class="st2" d="M-12528.4-10132.6h444c5.5,0,10,4.5,10,10v54h-464v-54
		C-12538.4-10128.1-12533.9-10132.6-12528.4-10132.6z"/>
	<g id="Grupo_59440" transform="translate(-12581.918 -10072.439)">
		<path id="Trazado_108812" class="st3" d="M308.9,241.9c12.2-18.5,7.1-43.3-11.3-55.5c-1.9-1.3-3.9-2.4-6-3.3V95.8
			c0-33.1-26.9-60-60-60h-56c-33.1,0-60,26.9-60,60v87.3c-20.3,8.8-29.5,32.4-20.7,52.7c0,0,0,0,0,0c0.9,2.1,2,4.1,3.3,6
			c-27.5,14.1-38.4,47.9-24.3,75.4c14,27.4,47.5,38.3,75,24.5c5.4-2.8,10.3-6.4,14.6-10.7c21.6,22.1,57,22.5,79.1,0.9
			c0,0,0.1-0.1,0.1-0.1l0.8-0.8c21.7,22,57.2,22.3,79.2,0.6c21.9-21.6,22.3-56.9,0.8-79C319.3,248.3,314.3,244.7,308.9,241.9z"/>
		<path id="Trazado_108813" class="st4" d="M323.5,403.8c-16.9-80.8-64.2-138.9-120-138.9S100.4,323,83.5,403.8H323.5z"/>
		<path id="Trazado_108814" class="st5" d="M105.5,331.8h-2.3c-8.4,17.3-15.1,50.9-19.7,72h42v-52
			C125.5,340.8,116.5,331.9,105.5,331.8z"/>
		<path id="Trazado_108815" class="st6" d="M163.2,275.8l40,56l40-56l-8-40h-64L163.2,275.8z"/>
		<path id="Trazado_108816" class="st7" d="M235.2,235.8h-64l-4.5,22.4l6.1,3.8c18.8,11.6,42.5,11.6,61.3-0.1l5.6-3.5L235.2,235.8z"
			/>
		<path id="Trazado_108817" class="st6" d="M287.5,139.8h-20v-8h-0.1c-9.8,0-18.9-5.2-24-13.6l-15.9-26.4l-0.7,1.2
			c-14.5,24.1-40.5,38.8-68.6,38.8h-18.7v8h-20c-11,0-20,9-20,20v16c0,11,9,20,20,20h20c0,0,9,30,23.7,39.1l19.2,11.8
			c12.9,8,29.3,8,42.2-0.1l19.4-12.1c14.6-9.1,23.5-38.7,23.5-38.7h20c11,0,20-9,20-20v-16C307.5,148.8,298.5,139.9,287.5,139.8
			L287.5,139.8z"/>
		<path id="Trazado_108818" class="st6" d="M287.5,139.8h-20v-8h-0.1c-9.8,0-18.9-5.2-24-13.6l-15.9-26.4l-0.7,1.2
			c-14.5,24.1-40.5,38.8-68.6,38.8h-18.7v8h-20c-11,0-20,9-20,20v16c0,11,9,20,20,20h20c0,0,9,30,23.7,39.1l19.2,11.8
			c12.9,8,29.3,8,42.2-0.1l19.4-12.1c14.6-9.1,23.5-38.7,23.5-38.7h20c11,0,20-9,20-20v-16C307.5,148.8,298.5,139.9,287.5,139.8
			L287.5,139.8z"/>
		<path id="Trazado_108819" class="st8" d="M203.5,219.8c-13.5,0-24-8.8-24-20h16c0,1.4,3,4,8,4s8-2.6,8-4h16
			C227.5,211,217,219.8,203.5,219.8z"/>
		<path id="Trazado_108820" class="st8" d="M227.5,156h16v16h-16V156z"/>
		<path id="Trazado_108821" class="st8" d="M163.5,156h16v16h-16V156z"/>
		<g id="Grupo_59437">
			<path id="Trazado_108822" class="st9" d="M67.8-36h16v16h-16V-36z"/>
			<path id="Trazado_108823" class="st9" d="M99.8-36h16v16h-16V-36z"/>
			<path id="Trazado_108824" class="st9" d="M131.8-36h16v16h-16V-36z"/>
			<path id="Trazado_108825" class="st9" d="M435.8-36h16v16h-16V-36z"/>
			<path id="Trazado_108826" class="st9" d="M467.8-36h16v16h-16V-36z"/>
		</g>
		<path id="Trazado_108827" class="st4" d="M181.8,220.5c-1.2-4.2-5.6-6.7-9.8-5.5c-0.1,0-0.3,0.1-0.4,0.1l-17.6,6
			c-0.2,0.1-0.5,0.1-0.7,0.2c-11.3,4.3-24-1.4-28.2-12.7c0-0.1,0-0.1-0.1-0.2c-0.9-2.5-1.4-5.1-1.4-7.7V196h-4c-4.3,0-8.5-1.4-12-4
			v8c-0.1,10.2,3.9,20.1,11,27.4c10.5,10.5,26,14,40,9l18.2-6.2C180.8,228.8,182.9,224.6,181.8,220.5L181.8,220.5z"/>
		<g id="Grupo_59438">
			<path id="Trazado_108828" class="st10" d="M351.5,35.8h104c11,0,20,9,20,20v104c0,11-9,20-20,20h-104c-11,0-20-9-20-20v-104
				C331.5,44.8,340.5,35.9,351.5,35.8z"/>
			<path id="Trazado_108829" class="st9" d="M413.5,123.8c0,0,14-9,14-20v-16c0-11-9-20-20-20h-8c-11,0-20,9-20,20v16
				c0,11,14,20,14,20c-16.5,0-30,13.4-30,29.9c0,0,0,0.1,0,0.1l0,0v26h80v-26C443.5,137.3,430.1,123.9,413.5,123.8
				C413.6,123.8,413.5,123.8,413.5,123.8z"/>
		</g>
		<g id="Grupo_59439">
			<path id="Trazado_108830" class="st10" d="M351.5,211.8h104c11,0,20,9,20,20v104c0,11-9,20-20,20h-104c-11,0-20-9-20-20v-104
				C331.5,220.8,340.5,211.9,351.5,211.8z"/>
			<path id="Trazado_108831" class="st9" d="M413.5,299.8c0,0,14-9,14-20v-16c0-11-9-20-20-20h-8c-11,0-20,9-20,20v16
				c0,11,14,20,14,20c-16.5,0-30,13.4-30,29.9c0,0,0,0.1,0,0.1l0,0v26h80v-26C443.5,313.3,430.1,299.9,413.5,299.8
				C413.6,299.8,413.5,299.8,413.5,299.8z"/>
		</g>
		<path id="Trazado_108832" class="st6" d="M139.5,288c-6.4-5.8-16.3-5.2-22.4,0.9l-9.6,9.6v-34.7c0-11-9-20-20-20h-4
			c-22.1,0-40,17.9-40,40c0,0,0,0,0,0v110c0,5.5,4.5,10,10,10h54v-56l32.6-36.7c6.2-6.3,6.2-16.3,0-22.6
			C139.9,288.3,139.7,288.2,139.5,288z"/>
		<path id="Trazado_108833" class="st4" d="M43.5,393.8c0,5.5,4.5,10,10,10h54v-40h-64V393.8z"/>
	</g>
</g>
</svg>
