<?xml version="1.0" encoding="utf-8"?>
<!-- Generator: Adobe Illustrator 25.2.3, SVG Export Plug-In . SVG Version: 6.00 Build 0)  -->
<svg version="1.1" id="Flat" xmlns="http://www.w3.org/2000/svg" xmlns:xlink="http://www.w3.org/1999/xlink" x="0px" y="0px"
	 viewBox="0 0 512 512" style="enable-background:new 0 0 512 512;" xml:space="preserve">
<style type="text/css">
	.st0{opacity:5.000000e-02;enable-background:new    ;}
	.st1{fill:#FB8656;}
	.st2{fill:#FDBF67;}
	.st3{fill:#FDB651;}
	.st4{fill:#FFD4CF;}
	.st5{fill:#FBB8B0;}
	.st6{fill:#0DCEA9;}
	.st7{fill:#09B291;}
	.st8{fill:#D16054;}
	.st9{fill:#FFFDFA;}
	.st10{fill:#F2FAFF;}
</style>
<g id="Grupo_59442" transform="translate(12557.918 10152)">
	<path id="Trazado_108766" class="st0" d="M-12080.9-9691.2c0-1.8,0-3.6-0.1-5.4v-1.8c0-1.2-0.1-2.4-0.1-3.6c0-0.7-0.1-1.4-0.1-2.1
		c0-1.1-0.1-2.2-0.2-3.2c0-0.7-0.1-1.5-0.1-2.2c-0.1-1-0.1-2.1-0.2-3.1c-0.1-0.8-0.1-1.5-0.2-2.3l-0.3-3c-0.1-0.8-0.1-1.5-0.2-2.3
		l-0.3-3c-0.1-0.7-0.2-1.5-0.3-2.2c-0.1-1-0.2-2-0.4-3c-0.1-0.7-0.2-1.5-0.3-2.2c-0.1-1-0.3-2-0.4-3l-0.3-2.1
		c-0.2-1-0.3-2.1-0.5-3.1c-0.1-0.6-0.2-1.3-0.3-1.9c-0.2-1.2-0.4-2.3-0.6-3.5l-0.3-1.5c-0.3-1.7-0.7-3.3-1-5c0-0.1,0-0.2-0.1-0.3
		c-0.3-1.6-0.7-3.1-1-4.6c-0.1-0.5-0.3-1.1-0.4-1.6c-0.3-1.1-0.5-2.2-0.8-3.3c-0.2-0.6-0.3-1.2-0.5-1.9c-0.3-1-0.5-2-0.8-2.9
		c-0.2-0.7-0.4-1.3-0.5-2c-0.3-0.9-0.5-1.9-0.8-2.8c-0.2-0.7-0.4-1.3-0.6-2c-0.2-0.8-0.5-1.6-0.7-2.4l24.5-37.2
		c6.4-9,4.3-21.4-4.6-27.9c-1.3-0.9-2.7-1.7-4.2-2.3l-0.2-0.1c-9.3-3.7-19.8,0-24.8,8.6l-8.6,16.4c0-0.1-0.1-0.1-0.1-0.2
		c-0.4-0.8-0.9-1.6-1.3-2.3c-0.3-0.5-0.6-1.1-0.9-1.6c-0.4-0.8-0.9-1.5-1.3-2.2c-0.3-0.6-0.6-1.1-1-1.6c-0.4-0.7-0.9-1.5-1.4-2.2
		c-0.3-0.5-0.6-1-1-1.5c-0.5-0.7-0.9-1.4-1.4-2.2c-0.3-0.5-0.6-1-1-1.5c-0.5-0.7-1-1.5-1.5-2.2c-0.3-0.5-0.6-0.9-0.9-1.4
		c-0.5-0.8-1.1-1.5-1.6-2.3l-0.9-1.2c-0.7-0.9-1.3-1.8-2-2.6c-0.2-0.2-0.3-0.4-0.5-0.6l0,0c-14.2-18.2-31.1-32.1-49.6-40.4l0.4-0.6
		l-7.3-36.3l7.6-4.7c15-8.7,24.1-24.8,24-42.1v3.5h20c11,0,20-9,20-20v-16c0-9.5-6.7-17.7-16-19.6v-44.4c0-33.1-26.9-60-60-60h-56
		c-33.1,0-60,26.9-60,60v44.4c-9.3,1.9-16,10.1-16,19.6v16c0,11,9,20,20,20h20v-3.7c0,17.2,8.9,33.3,23.5,42.4l7.8,4.9l-3.8,18.9
		l0,0l-3.5,17.5l0.4,0.6c-5.7,2.6-11.2,5.6-16.4,9.1c-0.2-5.4-4.6-9.7-10-9.7h-94l-7-35.1c24.8-9.4,37.3-37.1,27.9-61.9
		c-9.4-24.8-37.1-37.3-61.9-27.9c-24.8,9.4-37.3,37.1-27.9,61.9c4.9,12.9,15,23,27.9,27.9l-7,35.1h-94c-5.5,0-10,4.5-10,10v140
		c0,5.5,4.5,10,10,10h79.5l-1.5,8v24h-88v32h464v-32H-12080.9z"/>
	<path id="Trazado_108767" class="st1" d="M-12138.9-10004.8v-68c0-33.1-26.9-60-60-60h-56c-33.1,0-60,26.9-60,60v68H-12138.9z"/>
	<path id="Trazado_108768" class="st2" d="M-12226.9-9901.2c75.1,0,136,89.5,136,200v8h-288v-8c0-10.5,0.6-21,1.7-31.4
		c0.6-5.3,17.3-10.6,18.1-15.8C-12344.6-9836.1-12290.9-9901.2-12226.9-9901.2z"/>
	<path id="Trazado_108769" class="st3" d="M-12090.9-9701.2c0-60.3-18.1-114.4-46.8-151c-17.9,20.9-41.6,37.9-66.1,50.9
		c-20.3,10.8-41.8,19.9-59.3,34.8c-21.7,18.3-35.6,45.2-38.8,73.3h211V-9701.2z"/>
	<path id="Trazado_108770" class="st4" d="M-12266.9-9893.2l40,56l40-56l-8-40h-64L-12266.9-9893.2z"/>
	<path id="Trazado_108771" class="st5" d="M-12194.9-9933.2h-64l-4.5,22.4l5.9,3.7c18.7,11.7,42.5,11.8,61.3,0.1l5.9-3.6
		L-12194.9-9933.2z"/>
	<path id="Trazado_108772" class="st4" d="M-12142.9-10029.2h-20v-8h-18.7c-28.1,0-54.1-14.7-68.6-38.8l-0.7-1.2l-40,40v8h-20
		c-11,0-20,9-20,20v16c0,11,9,20,20,20h20v-3.7c0,17.2,8.9,33.3,23.5,42.4l19.4,12.1c12.9,8.1,29.3,8.1,42.2,0.1l19.1-11.9
		c14.8-9,23.8-25.1,23.8-42.5v3.5h20c11,0,20-9,20-20v-16C-12123-10020.3-12131.9-10029.2-12142.9-10029.2L-12142.9-10029.2z"/>
	<g id="Grupo_59432" transform="translate(-12422.485 -10171.829)">
		<path id="Trazado_108773" class="st2" d="M59.6,198.6c0-26.5-21.5-48-48-48c-26.5,0-48,21.5-48,48c0,19.9,12.3,37.8,31,44.9
			l-7,35.1h48l-7-35.1C47.2,236.5,59.6,218.6,59.6,198.6z"/>
		<path id="Trazado_108774" class="st1" d="M283.6,441.6l60.3-91.3c6.4-9,4.3-21.4-4.6-27.9c-1.3-0.9-2.7-1.7-4.2-2.3l-0.2-0.1
			c-9.3-3.7-19.8,0-24.8,8.6l-50.5,97L283.6,441.6z"/>
		<path id="Trazado_108775" class="st4" d="M219.6,470.6v8h80v-16c0-22.1-17.9-40-40-40s-40,17.9-40,40V470.6z"/>
		<path id="Trazado_108776" class="st6" d="M129.6,438.6h-236c-5.5,0-10-4.5-10-10v-140c0-5.5,4.5-10,10-10h236c5.5,0,10,4.5,10,10
			v140C139.6,434.1,135.1,438.6,129.6,438.6z"/>
		<path id="Trazado_108777" class="st7" d="M57.8,414.6l-12.5-56.2c-1-4.6-5.1-7.8-9.8-7.8h-48c-4.7,0-8.7,3.3-9.8,7.8l-12.3,56.2
			h-81.8v14c0,5.5,4.5,10,10,10h236c5.5,0,10-4.5,10-10v-14H57.8z"/>
		<circle id="Elipse_4853" class="st1" cx="11.6" cy="214.6" r="32"/>
		<path id="Trazado_108778" class="st6" d="M-28.4,478.6h80v-32l-16-88h-48l-16,88V478.6z"/>
		<path id="Trazado_108779" class="st7" d="M347.6,502.6h-464v-32h464V502.6z"/>
	</g>
	<g id="Grupo_59433" transform="translate(-12422.485 -10171.829)">
		<path id="Trazado_108780" class="st8" d="M219.6,158.6h16v16h-16V158.6z"/>
		<path id="Trazado_108781" class="st8" d="M155.6,158.6h16v16h-16V158.6z"/>
		<path id="Trazado_108782" class="st8" d="M195.6,230.6c-13.5,0-24-8.8-24-20h16c0,1.4,3,4,8,4s8-2.6,8-4h16
			C219.6,221.8,209.1,230.6,195.6,230.6z"/>
	</g>
	<path id="Trazado_108783" class="st9" d="M-12418.9-9965.2h16v16h-16V-9965.2z"/>
	<path id="Trazado_108784" class="st10" d="M-12466.9-9861.2h56v16h-56V-9861.2z"/>
	<path id="Trazado_108785" class="st10" d="M-12386.9-9861.2h24v16h-24V-9861.2z"/>
</g>
</svg>
