<?xml version="1.0" encoding="utf-8"?>
<!-- Generator: Adobe Illustrator 25.2.3, SVG Export Plug-In . SVG Version: 6.00 Build 0)  -->
<svg version="1.1" id="Flat" xmlns="http://www.w3.org/2000/svg" xmlns:xlink="http://www.w3.org/1999/xlink" x="0px" y="0px"
	 viewBox="0 0 512 512" style="enable-background:new 0 0 512 512;" xml:space="preserve">
<style type="text/css">
	.st0{opacity:5.000000e-02;enable-background:new    ;}
	.st1{fill:#0DCEA9;}
	.st2{fill:#FDBF67;}
	.st3{fill:#FFFDFA;}
	.st4{fill:#FB8656;}
	.st5{fill:#FFD4CF;}
	.st6{fill:#F2FAFF;}
</style>
<g id="Grupo_59443" transform="translate(12557.918 10152)">
	<path id="Trazado_108786" class="st0" d="M-12074.9-10075h-46v-28c0-11-9-20-20-20h-312c-11,0-20,9-20,20v28h-46
		c-5.5,0-10,4.5-10,10v332c0,5.5,4.5,10,10,10h46v44c0,11,9,20,20,20h356v-64h22c5.5,0,10-4.5,10-10v-332
		C-12064.9-10070.5-12069.4-10075-12074.9-10075z"/>
	<g id="Grupo_59436" transform="translate(-12581.918 -10072.439)">
		<path id="Trazado_108787" class="st1" d="M119-60.6h312c11,0,20,9,20,20v424c0,11-9,20-20,20H119c-11,0-20-9-20-20v-424
			C99-51.6,108-60.5,119-60.6z"/>
		<path id="Trazado_108788" class="st2" d="M497-12.6H315c-22.1,0-40,17.9-40,40c0,0,0,0,0,0c0-22.1-17.9-40-40-40c0,0,0,0,0,0H53
			c-5.5,0-10,4.5-10,10v332c0,5.5,4.5,10,10,10h444c5.5,0,10-4.5,10-10v-332C507-8.1,502.5-12.5,497-12.6z"/>
		<path id="Trazado_108789" class="st3" d="M307,43.4h168v152H307V43.4z"/>
		<path id="Trazado_108790" class="st4" d="M307,179.4h168v22c0,5.5-4.5,10-10,10H317c-5.5,0-10-4.5-10-10V179.4z"/>
		<path id="Trazado_108791" class="st5" d="M387,283.4v-84c0-11-9-20-20-20s-20,9-20,20v108l-16.1-3.2c-10.8-2.2-21.3,4.8-23.5,15.6
			c0,0,0,0,0,0.1c-0.3,1.3-0.4,2.6-0.4,3.9v4.3c0,7,3.7,13.5,9.7,17.1l30.3,18.2v40h128v-90c0-16.5-13.4-30-29.9-30c0,0-0.1,0-0.1,0
			H387z"/>
		<path id="Trazado_108792" class="st2" d="M363,147.4v-56l64,32L363,147.4z"/>
		<path id="Trazado_108793" class="st4" d="M227,59.4l-32-24l-32,24v-72h64V59.4z"/>
		<path id="Trazado_108794" class="st4" d="M317,27.4h148c5.5,0,10,4.5,10,10v22H307v-22C307,31.9,311.5,27.5,317,27.4z"/>
		<g id="Grupo_59435">
			<g id="Grupo_59434">
				<path id="Trazado_108795" class="st3" d="M67,91.4h56v16H67V91.4z"/>
				<path id="Trazado_108796" class="st3" d="M139,91.4h104v16H139V91.4z"/>
				<path id="Trazado_108797" class="st3" d="M67,139.4h120v16H67V139.4z"/>
				<path id="Trazado_108798" class="st3" d="M203,139.4h40v16h-40V139.4z"/>
				<path id="Trazado_108799" class="st3" d="M67,187.4h56v16H67V187.4z"/>
				<path id="Trazado_108800" class="st3" d="M139,187.4h104v16H139V187.4z"/>
				<path id="Trazado_108801" class="st3" d="M67,235.4h120v16H67V235.4z"/>
				<path id="Trazado_108802" class="st3" d="M203,235.4h40v16h-40V235.4z"/>
				<path id="Trazado_108803" class="st3" d="M67,283.4h56v16H67V283.4z"/>
				<path id="Trazado_108804" class="st3" d="M139,283.4h104v16H139V283.4z"/>
			</g>
			<path id="Trazado_108805" class="st3" d="M67,51.4h40v16H67V51.4z"/>
			<path id="Trazado_108806" class="st3" d="M123,51.4h16v16h-16V51.4z"/>
		</g>
		<path id="Trazado_108807" class="st6" d="M235,363.4h80v16h-80V363.4z"/>
		<path id="Trazado_108808" class="st4" d="M275,3.4c4.4,0,8,3.6,8,8v328h-16v-328C267,7,270.6,3.5,275,3.4z"/>
	</g>
</g>
</svg>
